<?xml version="1.0" encoding="utf-8"?>
<!-- Generator: Adobe Illustrator 22.1.0, SVG Export Plug-In . SVG Version: 6.00 Build 0)  -->
<svg version="1.1" id="Layer_1" xmlns="http://www.w3.org/2000/svg" xmlns:xlink="http://www.w3.org/1999/xlink" x="0px" y="0px"
	 viewBox="0 0 7.9 8.4" style="enable-background:new 0 0 7.9 8.4;" xml:space="preserve">
<style type="text/css">
	.st0{fill:#161616;}
	.st1{fill:#FFFFFF;}
</style>
<path class="st0" d="M4,0.4c2,0,3.7,1.6,3.7,3.7c0,2-1.6,3.7-3.7,3.7c-2,0-3.7-1.6-3.7-3.7C0.3,2.1,1.9,0.4,4,0.4z"/>
<path class="st1" d="M5.8,2.7L4.4,4.1l1.4,1.4C6.1,5.8,5.6,6.2,5.4,6L4,4.5L2.5,6C2.3,6.2,1.8,5.8,2.1,5.5l1.4-1.4L2.1,2.7
	C1.8,2.4,2.3,2,2.5,2.2L4,3.6l1.4-1.4C5.6,2,6.1,2.4,5.8,2.7z"/>
</svg>
