<?xml version="1.0" encoding="utf-8"?>
<!-- Generator: Adobe Illustrator 22.1.0, SVG Export Plug-In . SVG Version: 6.00 Build 0)  -->
<svg version="1.1" xmlns="http://www.w3.org/2000/svg" xmlns:xlink="http://www.w3.org/1999/xlink" x="0px" y="0px"
	 viewBox="0 0 100 103.2" style="enable-background:new 0 0 100 103.2;" xml:space="preserve">
<style type="text/css">
	.st0{fill:#FFFFFF;}
</style>
<g id="Layer_2">
</g>
<g id="Layer_1">
	<g>
		<path class="st0" d="M3069.3,1409v-1.2c0-1.6-2.9-2.3-5.6-2.3c-2.7,0-5.6,0.8-5.6,2.3v1.2c0,1,0.4,2.1,1.2,2.8l2.9,2.8
			c0.2,0.2,0.2,0.3,0.2,0.6v3.7c0,0.2,0.1,0.4,0.3,0.5l1.7,0.5c0.3,0.1,0.6-0.1,0.6-0.5v-4.2c0-0.2,0.1-0.4,0.2-0.6l2.9-2.9
			C3068.9,1411.1,3069.3,1410,3069.3,1409z M3063.7,1408.9c-2.8,0-4.3-0.8-4.3-1l0,0c0.1-0.3,1.6-1,4.3-1c2.8,0,4.2,0.8,4.3,1
			C3067.9,1408.2,3066.5,1408.9,3063.7,1408.9z"/>
		<path class="st0" d="M3066.6,1414.9c-0.3,0-0.6,0.2-0.6,0.6c0,0.3,0.2,0.6,0.6,0.6h2.5c0.3,0,0.6-0.2,0.6-0.6
			c0-0.3-0.2-0.6-0.6-0.6H3066.6z"/>
		<path class="st0" d="M3069.1,1416.9h-2.5c-0.3,0-0.6,0.2-0.6,0.6s0.2,0.6,0.6,0.6h2.5c0.3,0,0.6-0.2,0.6-0.6
			C3069.7,1417.1,3069.4,1416.9,3069.1,1416.9z"/>
		<path class="st0" d="M3069.1,1418.8h-2.5c-0.3,0-0.6,0.2-0.6,0.6s0.2,0.6,0.6,0.6h2.5c0.3,0,0.6-0.2,0.6-0.6
			C3069.7,1419.1,3069.4,1418.8,3069.1,1418.8z"/>
	</g>
	<path class="st0" d="M75.3,71.5L62.9,59.2c2.8-3.8,4.5-8.6,4.5-13.7c0-12.7-10.4-23.1-23.1-23.1S21.3,32.8,21.3,45.5
		s10.4,23.1,23.1,23.1c5.1,0,9.8-1.7,13.7-4.5l12.3,12.3c0.7,0.7,1.6,1,2.4,1c0.9,0,1.8-0.3,2.4-1C76.6,75,76.6,72.8,75.3,71.5z
		 M28.2,45.5c0-8.9,7.3-16.2,16.2-16.2s16.2,7.3,16.2,16.2s-7.3,16.2-16.2,16.2S28.2,54.5,28.2,45.5z"/>
</g>
</svg>
